<svg width="48" height="48" viewBox="0 0 48 48" fill="none" xmlns="http://www.w3.org/2000/svg">
<path d="M24 48C37.2548 48 48 37.2548 48 24C48 10.7452 37.2548 0 24 0C10.7452 0 0 10.7452 0 24C0 37.2548 10.7452 48 24 48Z" fill="white"/>
<mask id="mask0_51_1371" style="mask-type:luminance" maskUnits="userSpaceOnUse" x="0" y="0" width="48" height="48">
<path d="M24 48C37.2548 48 48 37.2548 48 24C48 10.7452 37.2548 0 24 0C10.7452 0 0 10.7452 0 24C0 37.2548 10.7452 48 24 48Z" fill="white"/>
</mask>
<g mask="url(#mask0_51_1371)">
<path d="M18.9888 36.7129C19.0452 35.8974 19.2362 33.1401 19.3426 31.6673C14.8366 30.7239 11.8688 27.2093 12.2189 22.9077C12.4155 20.488 13.4217 18.9636 15.2046 17.4061C16.5544 16.227 18.8194 14.0474 17.3212 12.0848C18.5843 11.94 19.8784 12.9371 20.0613 14.1964C23.1408 8.13172 29.2332 12.7494 33.9014 10C33.5974 11.5287 32.5021 12.8758 31.0685 13.4837C33.843 14.4054 34.6626 17.583 34.4854 19.6767C34.3053 21.8044 33.5366 23.4675 32.0403 24.5439C32.571 26.6263 32.8967 28.8349 32.4989 30.3961C31.5106 34.2751 24.6838 32.6224 24.6838 32.6224L25.9373 36.3056C32.2705 36.8245 37.1508 39.8363 37.6652 44.025C38.3113 49.2874 31.8216 54.4146 23.17 55.4769C14.5183 56.5392 6.98102 53.1343 6.33488 47.8719C5.73547 42.9901 11.2771 38.2247 18.9888 36.7129Z" fill="#E0E6E8"/>
</g>
</svg>
