<svg width="8" height="6" viewBox="0 0 6 4" fill="none" xmlns="http://www.w3.org/2000/svg">
<path fill-rule="evenodd" clip-rule="evenodd" d="M0.499894 0.5C0.401018 0.500021 0.304369 0.529357 0.222164 0.584299C0.139959 0.639241 0.0758896 0.717323 0.0380546 0.808673C0.000219561 0.900023 -0.00968207 1.00054 0.00960171 1.09752C0.0288855 1.19449 0.0764889 1.28357 0.146394 1.3535L2.64639 3.8535C2.74016 3.94724 2.86731 3.99989 2.99989 3.99989C3.13248 3.99989 3.25963 3.94724 3.35339 3.8535L5.85339 1.3535C5.9233 1.28357 5.9709 1.19449 5.99019 1.09752C6.00947 1.00054 5.99957 0.900023 5.96173 0.808673C5.9239 0.717323 5.85983 0.639241 5.77762 0.584299C5.69542 0.529357 5.59877 0.500021 5.49989 0.5H0.499894Z" fill="white"/>
</svg>
