<svg width="21" height="20" viewBox="0 0 21 20" fill="none" xmlns="http://www.w3.org/2000/svg">
<rect x="0.5" width="20" height="20" rx="10" fill="#F06A6A"/>
<path d="M9.66659 9.16666V6.66666C9.66659 6.20833 10.0416 5.83333 10.4999 5.83333C10.9583 5.83333 11.3333 6.20833 11.3333 6.66666V9.16666H13.8333C14.2916 9.16666 14.6666 9.54166 14.6666 10C14.6666 10.4583 14.2916 10.8333 13.8333 10.8333H11.3333V13.3333C11.3333 13.7917 10.9583 14.1667 10.4999 14.1667C10.0416 14.1667 9.66659 13.7917 9.66659 13.3333V10.8333H7.16659C6.70825 10.8333 6.33325 10.4583 6.33325 10C6.33325 9.54166 6.70825 9.16666 7.16659 9.16666H9.66659Z" fill="white"/>
</svg>
