<svg width="24" height="24" viewBox="0 0 24 24" fill="none" xmlns="http://www.w3.org/2000/svg">
<rect x="0.5" y="0.5" width="23" height="23" rx="11.5" stroke="#808080"/>
<g clip-path="url(#clip0_64_1581)">
<path d="M15.4286 5.99777V5.5692C15.4286 5.31205 15.2571 5.14062 15 5.14062C14.7429 5.14062 14.5714 5.31205 14.5714 5.5692V5.99777H9.42857V5.5692C9.42857 5.31205 9.25714 5.14062 9 5.14062C8.74286 5.14062 8.57143 5.31205 8.57143 5.5692V5.99777C7.15714 5.99777 6 7.15491 6 8.5692V15.4263C6 16.8406 7.15714 17.9978 8.57143 17.9978H15.4286C16.8429 17.9978 18 16.8406 18 15.4263V8.5692C18 7.15491 16.8429 5.99777 15.4286 5.99777ZM8.57143 6.85491V7.28348C8.57143 7.54063 8.74286 7.71205 9 7.71205C9.25714 7.71205 9.42857 7.54063 9.42857 7.28348V6.85491H14.5714V7.28348C14.5714 7.54063 14.7429 7.71205 15 7.71205C15.2571 7.71205 15.4286 7.54063 15.4286 7.28348V6.85491C16.3714 6.85491 17.1429 7.62634 17.1429 8.5692V9.42634H6.85714V8.5692C6.85714 7.62634 7.62857 6.85491 8.57143 6.85491ZM15.4286 17.1406H8.57143C7.62857 17.1406 6.85714 16.3692 6.85714 15.4263V10.2835H17.1429V15.4263C17.1429 16.3692 16.3714 17.1406 15.4286 17.1406Z" fill="#808080"/>
</g>
<defs>
<clipPath id="clip0_64_1581">
<rect width="13.7143" height="13.7143" fill="white" transform="translate(5.14258 5.14062)"/>
</clipPath>
</defs>
</svg>
