<svg width="12" height="12" viewBox="0 0 12 12" fill="none" xmlns="http://www.w3.org/2000/svg">
<g clip-path="url(#clip0_64_1573)">
<path d="M7.2498 6L10.2498 3C10.3998 2.85 10.4998 2.6 10.4998 2.4C10.4998 2.2 10.3998 1.95 10.2498 1.8C10.0498 1.6 9.8498 1.5 9.5998 1.5C9.3498 1.5 9.1498 1.6 8.9998 1.75L5.9998 4.75L2.9998 1.75C2.8498 1.6 2.5998 1.5 2.3998 1.5C2.1998 1.5 1.9498 1.6 1.7498 1.75C1.5998 1.95 1.4998 2.15 1.4998 2.4C1.4998 2.65 1.5998 2.85 1.7498 3L4.7498 6L1.7498 9C1.3998 9.35 1.3998 9.9 1.7498 10.25C1.9498 10.4 2.1498 10.5 2.3998 10.5C2.6498 10.5 2.8498 10.4 2.9998 10.25L5.9998 7.25L8.9998 10.25C9.1498 10.4 9.39981 10.5 9.5998 10.5C9.7998 10.5 10.0498 10.4 10.1998 10.25C10.5498 9.9 10.5498 9.35 10.1998 9L7.2498 6Z" fill="#A2A0A2"/>
</g>
<defs>
<clipPath id="clip0_64_1573">
<rect width="12" height="12" fill="white"/>
</clipPath>
</defs>
</svg>
