<svg width="12" height="12" viewBox="0 0 12 12" fill="none" xmlns="http://www.w3.org/2000/svg">
<path d="M9.14976 7.99481H8.79976C8.39976 7.99481 8.14976 8.44481 8.39976 8.74481C8.79976 9.34481 8.99976 10.0448 8.99976 10.7448V10.7948C8.99976 10.9448 8.94976 11.1448 8.94976 11.2948C8.84976 11.6448 9.09976 11.9448 9.39976 11.9448H10.7998C11.4498 11.9448 11.9998 11.3948 11.9998 10.7448C11.9998 9.24481 10.6998 7.99481 9.14976 7.99481ZM7.39976 6.94481C7.74976 7.04481 8.14976 7.04481 8.54976 6.94481C9.59976 6.74481 10.4498 5.89481 10.6498 4.84481C11.0498 3.04481 9.69976 1.49481 7.99976 1.49481C7.79976 1.49481 7.59976 1.49481 7.39976 1.54481C7.04976 1.64481 6.94976 1.99481 7.09976 2.29481C7.44976 2.84481 7.64976 3.49481 7.64976 4.19481C7.64976 4.89481 7.44976 5.54481 7.09976 6.09481C6.94976 6.44481 7.04976 6.84481 7.39976 6.94481ZM5.99976 8.14481C5.74976 8.04481 5.44976 7.99481 5.14976 7.99481H2.84976C1.29976 7.99481 -0.000244141 9.24481 -0.000244141 10.7948C-0.000244141 11.4448 0.549756 11.9948 1.19976 11.9948H6.79976C7.44976 11.9948 7.99976 11.4448 7.99976 10.7948C7.99976 9.54481 7.14976 8.49481 5.99976 8.14481ZM3.99976 1.49481C5.49976 1.49481 6.74976 2.74481 6.74976 4.24481C6.74976 5.74481 5.49976 6.99481 3.99976 6.99481C2.49976 6.99481 1.24976 5.74481 1.24976 4.24481C1.24976 2.74481 2.49976 1.49481 3.99976 1.49481Z" fill="#A2A0A2"/>
</svg>
