<svg width="16" height="16" viewBox="0 0 16 16" fill="none" xmlns="http://www.w3.org/2000/svg">
<path d="M6.00004 14.6667H2.00004C1.91292 14.6656 1.82686 14.6475 1.74671 14.6133C1.66398 14.5834 1.58884 14.5356 1.52663 14.4734C1.46442 14.4112 1.41665 14.3361 1.38671 14.2533C1.35255 14.1732 1.33443 14.0871 1.33337 14V10C1.33337 9.8232 1.40361 9.65363 1.52864 9.52861C1.65366 9.40358 1.82323 9.33334 2.00004 9.33334C2.17685 9.33334 2.34642 9.40358 2.47145 9.52861C2.59647 9.65363 2.66671 9.8232 2.66671 10V12.3933L5.52671 9.52668C5.65224 9.40114 5.82251 9.33062 6.00004 9.33062C6.17758 9.33062 6.34784 9.40114 6.47337 9.52668C6.59891 9.65221 6.66944 9.82248 6.66944 10C6.66944 10.1775 6.59891 10.3478 6.47337 10.4733L3.60671 13.3333H6.00004C6.17685 13.3333 6.34642 13.4036 6.47145 13.5286C6.59647 13.6536 6.66671 13.8232 6.66671 14C6.66671 14.1768 6.59647 14.3464 6.47145 14.4714C6.34642 14.5964 6.17685 14.6667 6.00004 14.6667ZM14 6.66668C13.8232 6.66668 13.6537 6.59644 13.5286 6.47141C13.4036 6.34639 13.3334 6.17682 13.3334 6.00001V3.60668L10.4734 6.47334C10.3478 6.59888 10.1776 6.6694 10 6.6694C9.82251 6.6694 9.65224 6.59888 9.52671 6.47334C9.40117 6.34781 9.33065 6.17754 9.33065 6.00001C9.33065 5.82248 9.40117 5.65221 9.52671 5.52668L12.3934 2.66668H10C9.82323 2.66668 9.65366 2.59644 9.52864 2.47141C9.40361 2.34639 9.33337 2.17682 9.33337 2.00001C9.33337 1.8232 9.40361 1.65363 9.52864 1.52861C9.65366 1.40358 9.82323 1.33334 10 1.33334H14C14.0872 1.3344 14.1732 1.35252 14.2534 1.38668C14.3361 1.41662 14.4112 1.46439 14.4735 1.5266C14.5357 1.58881 14.5834 1.66395 14.6134 1.74668C14.6475 1.82682 14.6657 1.91289 14.6667 2.00001V2.00001V6.00001C14.6667 6.17682 14.5965 6.34639 14.4714 6.47141C14.3464 6.59644 14.1769 6.66668 14 6.66668Z" fill="#A2A0A2"/>
</svg>
