<svg width="15" height="15" viewBox="0 0 15 15" fill="none" xmlns="http://www.w3.org/2000/svg">
<path d="M5.625 9.84375C5.625 9.71943 5.67439 9.6002 5.76229 9.51229C5.8502 9.42439 5.96943 9.375 6.09375 9.375H8.90625C9.03057 9.375 9.1498 9.42439 9.23771 9.51229C9.32561 9.6002 9.375 9.71943 9.375 9.84375C9.375 9.96807 9.32561 10.0873 9.23771 10.1752C9.1498 10.2631 9.03057 10.3125 8.90625 10.3125H6.09375C5.96943 10.3125 5.8502 10.2631 5.76229 10.1752C5.67439 10.0873 5.625 9.96807 5.625 9.84375ZM3.75 7.03125C3.75 6.90693 3.79939 6.7877 3.88729 6.69979C3.9752 6.61189 4.09443 6.5625 4.21875 6.5625H10.7812C10.9056 6.5625 11.0248 6.61189 11.1127 6.69979C11.2006 6.7877 11.25 6.90693 11.25 7.03125C11.25 7.15557 11.2006 7.2748 11.1127 7.36271C11.0248 7.45061 10.9056 7.5 10.7812 7.5H4.21875C4.09443 7.5 3.9752 7.45061 3.88729 7.36271C3.79939 7.2748 3.75 7.15557 3.75 7.03125ZM1.875 4.21875C1.875 4.09443 1.92439 3.9752 2.01229 3.88729C2.1002 3.79939 2.21943 3.75 2.34375 3.75H12.6562C12.7806 3.75 12.8998 3.79939 12.9877 3.88729C13.0756 3.9752 13.125 4.09443 13.125 4.21875C13.125 4.34307 13.0756 4.4623 12.9877 4.55021C12.8998 4.63811 12.7806 4.6875 12.6562 4.6875H2.34375C2.21943 4.6875 2.1002 4.63811 2.01229 4.55021C1.92439 4.4623 1.875 4.34307 1.875 4.21875Z" fill="#808080"/>
</svg>
