<svg width="20" height="20" viewBox="0 0 20 20" fill="none" xmlns="http://www.w3.org/2000/svg">
<rect width="20" height="20" rx="6" fill="#424244"/>
<g clip-path="url(#clip0_4_2079)">
<path d="M13.1498 11.9948H12.7998C12.3998 11.9948 12.1498 12.4448 12.3998 12.7448C12.7998 13.3448 12.9998 14.0448 12.9998 14.7448V14.7948C12.9998 14.9448 12.9498 15.1448 12.9498 15.2948C12.8498 15.6448 13.0998 15.9448 13.3998 15.9448H14.7998C15.4498 15.9448 15.9998 15.3948 15.9998 14.7448C15.9998 13.2448 14.6998 11.9948 13.1498 11.9948ZM11.3998 10.9448C11.7498 11.0448 12.1498 11.0448 12.5498 10.9448C13.5998 10.7448 14.4498 9.89475 14.6498 8.84475C15.0498 7.04475 13.6998 5.49475 11.9998 5.49475C11.7998 5.49475 11.5998 5.49475 11.3998 5.54475C11.0498 5.64475 10.9498 5.99475 11.0998 6.29475C11.4498 6.84475 11.6498 7.49475 11.6498 8.19475C11.6498 8.89475 11.4498 9.54475 11.0998 10.0948C10.9498 10.4448 11.0498 10.8448 11.3998 10.9448ZM9.99976 12.1448C9.74976 12.0448 9.44976 11.9948 9.14976 11.9948H6.84976C5.29976 11.9948 3.99976 13.2448 3.99976 14.7948C3.99976 15.4448 4.54976 15.9948 5.19976 15.9948H10.7998C11.4498 15.9948 11.9998 15.4448 11.9998 14.7948C11.9998 13.5448 11.1498 12.4948 9.99976 12.1448ZM7.99976 5.49475C9.49976 5.49475 10.7498 6.74475 10.7498 8.24475C10.7498 9.74475 9.49976 10.9948 7.99976 10.9948C6.49976 10.9948 5.24976 9.74475 5.24976 8.24475C5.24976 6.74475 6.49976 5.49475 7.99976 5.49475Z" fill="#A2A0A2"/>
</g>
<defs>
<clipPath id="clip0_4_2079">
<rect width="12" height="12" fill="white" transform="translate(3.99976 3.99738)"/>
</clipPath>
</defs>
</svg>
