<svg width="20" height="20" viewBox="0 0 20 20" fill="none" xmlns="http://www.w3.org/2000/svg">
<path d="M17.7999 15.0513L14.6999 10.2513C15.4999 9.25131 15.9999 7.95131 15.9999 6.50131C15.9999 3.20131 13.2999 0.501312 9.99993 0.501312C6.69993 0.501312 3.99993 3.20131 3.99993 6.50131C3.99993 7.95131 4.49993 9.25131 5.34993 10.3013L2.24993 15.1013C1.64993 16.0013 1.59993 17.1013 2.14993 18.0513C2.64993 19.0013 3.59993 19.5513 4.69993 19.5513H15.4499C16.4999 19.5513 17.4499 19.0013 17.9999 18.0513C18.5499 17.1013 18.3499 15.9513 17.7999 15.0513ZM5.49993 6.50131C5.49993 4.00131 7.49993 2.00131 9.99993 2.00131C12.4999 2.00131 14.4999 4.00131 14.4999 6.50131C14.4999 7.40131 14.2499 8.25131 13.7999 8.95131L12.4499 6.85131C11.8999 6.05131 10.9999 5.55131 10.0499 5.55131C9.09993 5.55131 8.19993 6.05131 7.64993 6.85131L6.29993 8.95131C5.74993 8.25131 5.49993 7.40131 5.49993 6.50131ZM12.7499 10.1013C11.9499 10.6513 11.0499 11.0013 9.99993 11.0013C8.94993 11.0013 8.04993 10.6513 7.24993 10.0513L8.84993 7.65131C9.09993 7.25131 9.54993 7.05131 9.99993 7.05131C10.4499 7.05131 10.8999 7.30131 11.1499 7.65131L12.7499 10.1013ZM16.5999 17.3013C16.3499 17.7513 15.8999 18.0013 15.3999 18.0013H4.59993C4.09993 18.0013 3.64993 17.7513 3.39993 17.3013C3.14993 16.8513 3.19993 16.3513 3.44993 15.9013L6.44993 11.3513C7.44993 12.1013 8.64993 12.5013 9.99993 12.5013C11.3499 12.5013 12.5499 12.0513 13.5499 11.3513L16.5499 15.9013C16.7999 16.3013 16.8499 16.8513 16.5999 17.3013Z" fill="#A2A0A2"/>
</svg>
