<svg width="12" height="13" viewBox="0 0 12 13" fill="none" xmlns="http://www.w3.org/2000/svg">
<g clip-path="url(#clip0_57_1561)">
<path d="M5 1.5V4.5C5 5.1 4.6 5.5 4 5.5H1C0.4 5.5 0 5.1 0 4.5V1.5C0 0.9 0.4 0.5 1 0.5H4C4.6 0.5 5 0.9 5 1.5Z" fill="#F06A6A"/>
<path d="M12 1.5V4.5C12 5.1 11.6 5.5 11 5.5H8C7.4 5.5 7 5.1 7 4.5V1.5C7 0.9 7.4 0.5 8 0.5H11C11.6 0.5 12 0.9 12 1.5Z" fill="#F1BD6C"/>
<path d="M5 8.5V11.5C5 12.1 4.6 12.5 4 12.5H1C0.4 12.5 0 12.1 0 11.5V8.5C0 7.9 0.4 7.5 1 7.5H4C4.6 7.5 5 7.9 5 8.5Z" fill="#5DA283"/>
<path d="M11 12.5H8C7.4 12.5 7 12.1 7 11.5V8.5C7 7.9 7.4 7.5 8 7.5H11C11.6 7.5 12 7.9 12 8.5V11.5C12 12.1 11.6 12.5 11 12.5ZM8 8.5V11.5H11V8.5H8Z" fill="#4573D2"/>
</g>
<defs>
<clipPath id="clip0_57_1561">
<rect width="12" height="12" fill="white" transform="translate(0 0.5)"/>
</clipPath>
</defs>
</svg>
