<svg width="18" height="18" viewBox="0 0 18 18" fill="none" xmlns="http://www.w3.org/2000/svg">
<path d="M2.25029 8.99766H15.7503C16.0203 8.99766 16.2003 9.17766 16.2003 9.44766C16.2003 9.71766 16.0203 9.89766 15.7503 9.89766H2.25029C1.98029 9.89766 1.80029 9.71766 1.80029 9.44766C1.80029 9.17766 1.98029 8.99766 2.25029 8.99766ZM2.25029 3.59766H15.7503C16.0203 3.59766 16.2003 3.77766 16.2003 4.04766C16.2003 4.31766 16.0203 4.49766 15.7503 4.49766H2.25029C1.98029 4.49766 1.80029 4.31766 1.80029 4.04766C1.80029 3.77766 1.98029 3.59766 2.25029 3.59766ZM2.25029 14.3977H15.7503C16.0203 14.3977 16.2003 14.5777 16.2003 14.8477C16.2003 15.1177 16.0203 15.2977 15.7503 15.2977H2.25029C1.98029 15.2977 1.80029 15.1177 1.80029 14.8477C1.80029 14.5777 1.98029 14.3977 2.25029 14.3977Z" fill="#A2A0A2"/>
</svg>
