<svg width="20" height="20" viewBox="0 0 20 20" fill="none" xmlns="http://www.w3.org/2000/svg">
<g clip-path="url(#clip0_4_2038)">
<path d="M18.9499 7.49842L11.0999 1.89842C10.4499 1.39842 9.54986 1.39842 8.89986 1.84842L1.09986 7.19842C0.749859 7.44842 0.649859 7.89842 0.899859 8.24842C1.14986 8.59842 1.59986 8.69842 1.94986 8.44842L2.99986 7.69842V13.8484C2.99986 16.1484 4.84986 17.9984 7.14986 17.9984H12.8499C15.1499 17.9984 16.9999 16.1484 16.9999 13.8484V7.94842L18.0499 8.69842C18.1999 8.79842 18.3499 8.84842 18.4999 8.84842C18.7499 8.84842 18.9499 8.74842 19.0999 8.54842C19.3499 8.19842 19.2499 7.74842 18.9499 7.49842ZM15.4999 13.8484C15.4999 15.2984 14.2999 16.4984 12.8499 16.4984H7.14986C5.69986 16.4984 4.49986 15.2984 4.49986 13.8484V6.64842L9.79986 3.04842C9.89986 2.94842 10.0499 2.94842 10.1999 3.04842L15.4999 6.84842V13.8484Z" fill="#A2A0A2"/>
</g>
<defs>
<clipPath id="clip0_4_2038">
<rect width="20" height="20" fill="white"/>
</clipPath>
</defs>
</svg>
