<svg width="20" height="20" viewBox="0 0 20 20" fill="none" xmlns="http://www.w3.org/2000/svg">
<g clip-path="url(#clip0_4_2044)">
<path d="M3.75042 16.0026H3.25042C2.50042 16.0026 1.85042 15.6026 1.55042 15.0026C1.15042 14.2526 1.35042 13.3026 2.00042 12.7526C2.60042 12.2526 2.95042 11.5526 3.00042 10.8026V7.75259C3.00042 4.05259 6.15042 1.00259 10.0004 1.00259C13.8504 1.00259 17.0004 4.05259 17.0004 7.75259V11.0026C17.1004 11.7026 17.4504 12.3026 18.0004 12.7526C18.6504 13.3026 18.8504 14.2026 18.4504 15.0026C18.1504 15.6026 17.4504 16.0026 16.7504 16.0026H16.3004H3.75042ZM3.80042 14.5026H16.7004C16.8504 14.5026 17.0504 14.4026 17.1004 14.3026C17.2004 14.1026 17.1004 13.9526 17.0004 13.9026C16.2004 13.2026 15.6504 12.2526 15.5004 11.1526C15.5004 11.1026 15.5004 11.1026 15.5004 11.0526V7.75259C15.5004 4.85259 13.0504 2.50259 10.0004 2.50259C6.95042 2.50259 4.50042 4.85259 4.50042 7.75259V10.8026V10.8526C4.40042 12.0526 3.85042 13.1026 2.95042 13.8526C2.85042 13.9526 2.80042 14.1026 2.85042 14.2526C2.95042 14.4026 3.10042 14.5026 3.25042 14.5026H3.80042ZM12.3504 17.0026C12.0004 17.9526 11.1004 18.6026 10.0004 18.6026C8.90042 18.6026 8.00042 17.9526 7.65042 17.0026H12.3504Z" fill="#A2A0A2"/>
</g>
<defs>
<clipPath id="clip0_4_2044">
<rect width="20" height="20" fill="white"/>
</clipPath>
</defs>
</svg>
