<svg width="16" height="16" viewBox="0 0 16 16" fill="none" xmlns="http://www.w3.org/2000/svg">
<path d="M14.7998 6.64807C14.3998 6.19807 13.8498 5.94807 13.2498 5.94807H10.0498V3.74807C10.0498 2.79807 9.59983 1.84807 8.79983 1.29807C8.44983 0.998071 7.94983 0.898071 7.49983 1.04807C7.04983 1.14807 6.64983 1.44807 6.49983 1.89807L4.14983 6.94807H2.49983C1.64983 6.94807 0.949829 7.64807 0.949829 8.49807V13.4981C0.949829 14.3481 1.64983 15.0481 2.49983 15.0481H3.94983H4.49983H12.4498C13.4498 15.0481 14.2998 14.2981 14.4498 13.2981L15.2498 8.29807C15.3498 7.69807 15.1998 7.09807 14.7998 6.64807ZM2.49983 13.9481C2.24983 13.9481 2.04983 13.7481 2.04983 13.4981V8.49807C2.04983 8.24807 2.24983 8.04807 2.49983 8.04807H3.94983V13.9481C3.94983 13.9481 2.49983 13.9481 2.49983 13.9481ZM14.1998 8.14807L13.3998 13.1481C13.3498 13.5981 12.9498 13.9481 12.4498 13.9481H5.04983V7.59807L7.49983 2.34807C7.59983 2.19807 7.69983 2.09807 7.79983 2.09807C7.89983 2.09807 8.04983 2.04807 8.19983 2.19807C8.69983 2.54807 8.99983 3.14807 8.99983 3.79807V7.09807H13.2998C13.5998 7.09807 13.8498 7.19807 14.0498 7.44807C14.1498 7.59807 14.2498 7.84807 14.1998 8.14807Z" fill="#A2A0A2"/>
</svg>
