<svg width="24" height="24" viewBox="0 0 24 24" fill="none" xmlns="http://www.w3.org/2000/svg">
<path d="M18 1.5V0.75C18 0.3 17.7 0 17.25 0C16.8 0 16.5 0.3 16.5 0.75V1.5H7.5V0.75C7.5 0.3 7.2 0 6.75 0C6.3 0 6 0.3 6 0.75V1.5C3.525 1.5 1.5 3.525 1.5 6V18C1.5 20.475 3.525 22.5 6 22.5H18C20.475 22.5 22.5 20.475 22.5 18V6C22.5 3.525 20.475 1.5 18 1.5ZM21 18C21 19.65 19.65 21 18 21H6C4.35 21 3 19.65 3 18V6C3 4.35 4.35 3 6 3V3.75C6 4.2 6.3 4.5 6.75 4.5C7.2 4.5 7.5 4.2 7.5 3.75V3H16.5V3.75C16.5 4.2 16.8 4.5 17.25 4.5C17.7 4.5 18 4.2 18 3.75V3C19.65 3 21 4.35 21 6V18ZM17.325 9.675L14.4 9.225L13.05 6.525C12.825 6.15 12.45 5.85 12 5.85C11.55 5.85 11.1 6.075 10.95 6.525L9.6 9.225L6.675 9.675C6.225 9.75 5.85 10.05 5.7 10.5C5.55 10.95 5.7 11.4 6 11.7L8.175 13.8L7.65 16.725C7.575 17.175 7.725 17.625 8.1 17.925C8.475 18.225 8.925 18.225 9.375 18L12 16.575L14.625 18C14.775 18.075 15 18.15 15.15 18.15C15.375 18.15 15.675 18.075 15.825 17.925C16.2 17.625 16.35 17.175 16.275 16.725L15.75 13.8L17.85 11.7C18.15 11.4 18.3 10.875 18.15 10.5C18.15 10.05 17.775 9.75 17.325 9.675ZM14.25 13.275L14.775 16.425L12 14.925L9.225 16.425L9.75 13.275L7.5 11.1L10.65 10.65L12.075 7.8L13.5 10.65L16.65 11.1L14.25 13.275Z" fill="#A2A0A2"/>
</svg>
