<svg width="20" height="20" viewBox="0 0 20 20" fill="none" xmlns="http://www.w3.org/2000/svg">
<g clip-path="url(#clip0_4_2041)">
<path d="M10 1.25C5.2 1.25 1.25 5.2 1.25 10C1.25 14.8 5.2 18.75 10 18.75C14.8 18.75 18.75 14.8 18.75 10C18.75 5.2 14.8 1.25 10 1.25ZM10 17.25C6 17.25 2.75 14 2.75 10C2.75 6 6 2.75 10 2.75C14 2.75 17.25 6 17.25 10C17.25 14 14 17.25 10 17.25ZM13.85 7.5C14.15 7.8 14.15 8.25 13.85 8.55L8.85 13.55C8.75 13.65 8.55 13.7 8.35 13.7C8.15 13.7 7.95 13.65 7.8 13.5L5.75 11.45C5.45 11.15 5.45 10.7 5.75 10.4C6.05 10.1 6.5 10.1 6.8 10.4L8.35 11.95L12.8 7.5C13.1 7.2 13.55 7.2 13.85 7.5Z" fill="#A2A0A2"/>
</g>
<defs>
<clipPath id="clip0_4_2041">
<rect width="20" height="20" fill="white"/>
</clipPath>
</defs>
</svg>
