<svg width="20" height="20" viewBox="0 0 20 20" fill="none" xmlns="http://www.w3.org/2000/svg">
<g filter="url(#filter0_i_4_2060)">
<rect width="20" height="20" rx="6" fill="#9EE7E3"/>
<g clip-path="url(#clip0_4_2060)">
<path fill-rule="evenodd" clip-rule="evenodd" d="M6.91634 12.7474H5.24967C4.99967 12.7474 4.83301 12.5807 4.83301 12.3724V9.37238C4.83301 9.16404 4.99967 8.99738 5.24967 8.99738H6.91634C7.16634 8.99738 7.33301 9.16404 7.33301 9.37238V12.3724C7.33301 12.5807 7.16634 12.7474 6.91634 12.7474Z" fill="#1E1F21" fill-opacity="0.75"/>
<path fill-rule="evenodd" clip-rule="evenodd" d="M6.91634 7.74738H5.24967C4.99967 7.74738 4.83301 7.58071 4.83301 7.33071V5.66404C4.83301 5.45571 4.99967 5.24738 5.24967 5.24738H6.91634C7.16634 5.24738 7.33301 5.45571 7.33301 5.66404V7.33071C7.33301 7.58071 7.16634 7.74738 6.91634 7.74738ZM10.6663 5.24738H8.99967C8.74967 5.24738 8.58301 5.45571 8.58301 5.66404V10.664C8.58301 10.8724 8.74967 11.0807 8.99967 11.0807H10.6663C10.9163 11.0807 11.083 10.8724 11.083 10.664V5.66404C11.083 5.45571 10.9163 5.24738 10.6663 5.24738ZM14.4163 5.24738H12.7497C12.5413 5.24738 12.333 5.45571 12.333 5.66404V7.33071C12.333 7.58071 12.5413 7.74738 12.7497 7.74738H14.4163C14.6247 7.74738 14.833 7.58071 14.833 7.33071V5.66404C14.833 5.45571 14.6247 5.24738 14.4163 5.24738Z" fill="#F5F4F3"/>
</g>
</g>
<defs>
<filter id="filter0_i_4_2060" x="0" y="0" width="20" height="20" filterUnits="userSpaceOnUse" color-interpolation-filters="sRGB">
<feFlood flood-opacity="0" result="BackgroundImageFix"/>
<feBlend mode="normal" in="SourceGraphic" in2="BackgroundImageFix" result="shape"/>
<feColorMatrix in="SourceAlpha" type="matrix" values="0 0 0 0 0 0 0 0 0 0 0 0 0 0 0 0 0 0 127 0" result="hardAlpha"/>
<feOffset dy="-2"/>
<feComposite in2="hardAlpha" operator="arithmetic" k2="-1" k3="1"/>
<feColorMatrix type="matrix" values="0 0 0 0 0 0 0 0 0 0 0 0 0 0 0 0 0 0 0.05 0"/>
<feBlend mode="normal" in2="shape" result="effect1_innerShadow_4_2060"/>
</filter>
<clipPath id="clip0_4_2060">
<rect width="12" height="12" fill="white" transform="translate(3.99976 3.99738)"/>
</clipPath>
</defs>
</svg>
