<svg width="20" height="20" viewBox="0 0 20 20" fill="none" xmlns="http://www.w3.org/2000/svg">
<path d="M15.2502 4.49869H11.3502L9.55024 2.69869C9.10024 2.24869 8.45024 1.99869 7.80024 1.99869H5.25024C3.45024 1.99869 2.00024 3.44869 2.00024 5.24869V14.7487C2.00024 16.5487 3.45024 17.9987 5.25024 17.9987H14.7502C16.5502 17.9987 18.0002 16.5487 18.0002 14.7487V7.24869C18.0002 5.74869 16.7502 4.49869 15.2502 4.49869ZM16.5002 14.7487C16.5002 15.6987 15.7002 16.4987 14.7502 16.4987H5.25024C4.30024 16.4987 3.50024 15.6987 3.50024 14.7487V5.24869C3.50024 4.29869 4.30024 3.49869 5.25024 3.49869H7.80024C8.05024 3.49869 8.30024 3.59869 8.50024 3.79869L10.5502 5.79869C10.7002 5.94869 10.9002 5.99869 11.1002 5.99869H15.3002C16.0002 5.99869 16.5502 6.54869 16.5502 7.24869L16.5002 14.7487ZM6.75024 6.49869C7.15024 6.49869 7.50024 6.84869 7.50024 7.24869V13.7487C7.50024 14.1487 7.15024 14.4987 6.75024 14.4987C6.35024 14.4987 6.00024 14.1487 6.00024 13.7487V7.24869C6.00024 6.84869 6.35024 6.49869 6.75024 6.49869ZM12.7502 8.99869C13.1502 8.99869 13.5002 9.34869 13.5002 9.74869V13.7487C13.5002 14.1487 13.1502 14.4987 12.7502 14.4987C12.3502 14.4987 12.0002 14.1487 12.0002 13.7487V9.74869C12.0002 9.34869 12.3502 8.99869 12.7502 8.99869ZM9.75024 10.9987C10.1502 10.9987 10.5002 11.3487 10.5002 11.7487V13.7487C10.5002 14.1487 10.1502 14.4987 9.75024 14.4987C9.35024 14.4987 9.00024 14.1487 9.00024 13.7487V11.7487C9.00024 11.3487 9.35024 10.9987 9.75024 10.9987Z" fill="#A2A0A2"/>
</svg>
