<svg width="20" height="20" viewBox="0 0 20 20" fill="none" xmlns="http://www.w3.org/2000/svg">
<g clip-path="url(#clip0_4_2089)">
<path d="M17.2498 3.00131C15.9998 3.00131 14.9998 4.00131 14.9998 5.25131C14.9998 5.80131 15.1998 6.30131 15.5498 6.70131L13.3998 10.5013C13.2498 10.5013 13.1498 10.5013 12.9998 10.5013C12.5498 10.5013 12.1998 10.6513 11.8498 10.8513L9.59976 9.00131C9.69976 8.75131 9.74976 8.50131 9.74976 8.25131C9.74976 7.00131 8.74976 6.00131 7.49976 6.00131C6.24976 6.00131 5.24976 7.00131 5.24976 8.25131C5.24976 8.70131 5.39976 9.15131 5.64976 9.50131L3.39976 12.6013C3.19976 12.5513 2.94976 12.5013 2.74976 12.5013C1.49976 12.5013 0.499756 13.5013 0.499756 14.7513C0.499756 16.0013 1.49976 17.0013 2.74976 17.0013C3.99976 17.0013 4.99976 16.0013 4.99976 14.7513C4.99976 14.3013 4.84976 13.8513 4.59976 13.5013L6.84976 10.4013C7.04976 10.4513 7.24976 10.5013 7.49976 10.5013C7.94976 10.5013 8.29976 10.3513 8.64976 10.1513L10.8998 12.0013C10.7998 12.2513 10.7498 12.5013 10.7498 12.7513C10.7498 14.0013 11.7498 15.0013 12.9998 15.0013C14.2498 15.0013 15.2498 14.0013 15.2498 12.7513C15.2498 12.2013 15.0498 11.7013 14.6998 11.3013L16.8498 7.50131C16.9998 7.50131 17.0998 7.55131 17.2498 7.55131C18.4998 7.55131 19.4998 6.55131 19.4998 5.30131C19.4998 4.05131 18.4998 3.00131 17.2498 3.00131ZM2.74976 15.5013C2.69976 15.5013 2.59976 15.5013 2.54976 15.4513H2.49976C2.44976 15.4513 2.34976 15.4013 2.29976 15.3513L2.24976 15.3013L2.19976 15.2513L2.14976 15.2013L2.09976 15.1513L2.04976 15.1013C2.04976 15.1013 2.04976 15.0513 1.99976 15.0513V15.0013V14.9513C1.99976 14.9013 1.99976 14.9013 1.99976 14.8513V14.8013C1.99976 14.7513 1.99976 14.7513 1.99976 14.7013V14.6513V14.6013V14.5513C1.99976 14.5513 1.99976 14.5013 2.04976 14.5013L2.09976 14.4513C2.24976 14.1513 2.49976 14.0013 2.74976 14.0013C3.14976 14.0013 3.49976 14.3513 3.49976 14.7513C3.49976 14.9513 3.44976 15.1013 3.34976 15.2013C3.34976 15.2513 3.29976 15.2513 3.24976 15.3013L3.19976 15.3513C3.14976 15.3513 3.14976 15.4013 3.09976 15.4013C3.09976 15.4013 3.04976 15.4013 3.04976 15.4513C2.99976 15.4513 2.99976 15.5013 2.94976 15.5013H2.89976C2.84976 15.5013 2.79976 15.5013 2.74976 15.5013ZM7.49976 9.00131C7.09976 9.00131 6.74976 8.65131 6.74976 8.25131C6.74976 8.05131 6.79976 7.90131 6.94976 7.75131L6.99976 7.70131L7.04976 7.65131L7.09976 7.60131C7.09976 7.60131 7.14976 7.60131 7.14976 7.55131C7.14976 7.55131 7.19976 7.55131 7.19976 7.50131H7.24976C7.29976 7.50131 7.29976 7.50131 7.34976 7.50131C7.34976 7.50131 7.34976 7.50131 7.39976 7.50131H7.44976H7.49976C7.49976 7.50131 7.49976 7.50131 7.54976 7.50131C7.59976 7.50131 7.59976 7.50131 7.64976 7.50131H7.69976C7.74976 7.50131 7.74976 7.50131 7.74976 7.50131C7.74976 7.50131 7.79976 7.50131 7.79976 7.55131C7.79976 7.55131 7.84976 7.55131 7.84976 7.60131L7.89976 7.65131C8.09976 7.80131 8.19976 8.00131 8.19976 8.25131C8.24976 8.65131 7.89976 9.00131 7.49976 9.00131ZM12.9498 13.5013C12.8998 13.5013 12.8998 13.5013 12.8498 13.5013H12.7998C12.7498 13.5013 12.7498 13.5013 12.6998 13.4513C12.6998 13.4513 12.6498 13.4513 12.6498 13.4013C12.5998 13.4013 12.5998 13.3513 12.5998 13.3513C12.3998 13.2013 12.2998 13.0013 12.2998 12.7513C12.2998 12.3513 12.6498 12.0013 13.0498 12.0013C13.4498 12.0013 13.7998 12.3513 13.7998 12.7513C13.7998 12.9013 13.7498 13.0513 13.6998 13.1513C13.6998 13.2013 13.6498 13.2013 13.6498 13.2513L13.5998 13.3013L13.5498 13.3513L13.4998 13.4013C13.4498 13.4013 13.4498 13.4513 13.3998 13.4513C13.3498 13.4513 13.2998 13.5013 13.2498 13.5013H13.1998C13.0498 13.5013 12.9998 13.5013 12.9498 13.5013ZM16.4998 5.25131C16.4998 5.10131 16.5498 4.95131 16.5998 4.85131L16.6498 4.80131L16.6998 4.75131L16.7498 4.70131L16.7998 4.65131L16.8498 4.60131C16.8498 4.60131 16.8998 4.60131 16.8998 4.55131C16.8998 4.55131 16.9498 4.55131 16.9498 4.50131H16.9998C16.9998 4.50131 17.0498 4.50131 17.0998 4.50131H17.1498C17.1498 4.50131 17.1498 4.50131 17.1998 4.50131H17.2498C17.2998 4.50131 17.2998 4.50131 17.3498 4.50131H17.3998H17.4498C17.4498 4.50131 17.4998 4.50131 17.4998 4.55131H17.5498L17.5998 4.60131L17.6498 4.65131L17.6998 4.70131L17.7498 4.75131C17.7498 4.75131 17.7498 4.80131 17.7998 4.80131L17.8498 4.85131C17.8498 4.85131 17.8498 4.90131 17.8998 4.90131V4.95131V5.00131C17.8998 5.05131 17.8998 5.05131 17.8998 5.10131V5.15131C17.8998 5.20131 17.8998 5.20131 17.8998 5.25131V5.30131V5.35131C17.8998 5.35131 17.8998 5.40131 17.8498 5.40131C17.7498 5.65131 17.4498 5.80131 17.1998 5.80131C16.8498 6.00131 16.4998 5.65131 16.4998 5.25131Z" fill="#A2A0A2"/>
</g>
<defs>
<clipPath id="clip0_4_2089">
<rect width="20" height="20" fill="white"/>
</clipPath>
</defs>
</svg>
