<svg width="16" height="16" viewBox="0 0 16 16" fill="none" xmlns="http://www.w3.org/2000/svg">
<path d="M12.5 10C11.3 10 10.3 10.85 10.05 12H5.5C3.55 12 2 10.45 2 8.5V6H10.05C10.3 7.15 11.3 8 12.5 8C13.9 8 15 6.9 15 5.5C15 4.1 13.9 3 12.5 3C11.3 3 10.3 3.85 10.05 5H2V1.5C2 1.2 1.8 1 1.5 1C1.2 1 1 1.2 1 1.5V8.5C1 11 3 13 5.5 13H10.05C10.3 14.15 11.3 15 12.5 15C13.9 15 15 13.9 15 12.5C15 11.1 13.9 10 12.5 10ZM12.5 4C13.35 4 14 4.65 14 5.5C14 6.35 13.35 7 12.5 7C11.65 7 11 6.35 11 5.5C11 4.65 11.65 4 12.5 4ZM12.5 14C11.65 14 11 13.35 11 12.5C11 11.65 11.65 11 12.5 11C13.35 11 14 11.65 14 12.5C14 13.35 13.35 14 12.5 14Z" fill="#A2A0A2"/>
</svg>
