<svg width="16" height="12" viewBox="0 0 16 12" fill="none" xmlns="http://www.w3.org/2000/svg">
<path d="M2.66669 6C2.66669 6.13261 2.73693 6.25979 2.86195 6.35355C2.98697 6.44732 3.15654 6.5 3.33335 6.5C3.51016 6.5 3.67973 6.44732 3.80476 6.35355C3.92978 6.25979 4.00002 6.13261 4.00002 6C4.00002 5.86739 3.92978 5.74021 3.80476 5.64645C3.67973 5.55268 3.51016 5.5 3.33335 5.5C3.15654 5.5 2.98697 5.55268 2.86195 5.64645C2.73693 5.74021 2.66669 5.86739 2.66669 6ZM7.33335 6C7.33335 6.13261 7.40359 6.25979 7.52862 6.35355C7.65364 6.44732 7.82321 6.5 8.00002 6.5C8.17683 6.5 8.3464 6.44732 8.47142 6.35355C8.59645 6.25979 8.66669 6.13261 8.66669 6C8.66669 5.86739 8.59645 5.74021 8.47142 5.64645C8.3464 5.55268 8.17683 5.5 8.00002 5.5C7.82321 5.5 7.65364 5.55268 7.52862 5.64645C7.40359 5.74021 7.33335 5.86739 7.33335 6ZM12 6C12 6.13261 12.0703 6.25979 12.1953 6.35355C12.3203 6.44732 12.4899 6.5 12.6667 6.5C12.8435 6.5 13.0131 6.44732 13.1381 6.35355C13.2631 6.25979 13.3334 6.13261 13.3334 6C13.3334 5.86739 13.2631 5.74021 13.1381 5.64645C13.0131 5.55268 12.8435 5.5 12.6667 5.5C12.4899 5.5 12.3203 5.55268 12.1953 5.64645C12.0703 5.74021 12 5.86739 12 6Z" stroke="black" stroke-linecap="round" stroke-linejoin="round"/>
</svg>
