<svg width="16" height="16" viewBox="0 0 16 16" fill="none" xmlns="http://www.w3.org/2000/svg">
<g clip-path="url(#clip0_63_1373)">
<path d="M4.50017 16.0021C3.35017 16.0021 2.20017 15.5521 1.30017 14.7021C-0.449829 12.9521 -0.449829 10.1021 1.30017 8.35209L3.30017 6.35209C3.50017 6.15209 3.80017 6.15209 4.00017 6.35209C4.20017 6.55209 4.20017 6.85209 4.00017 7.05209L2.00017 9.05209C0.650171 10.4021 0.650171 12.6521 2.00017 14.0021C3.35017 15.3521 5.60017 15.3521 6.95017 14.0021L8.95017 12.0021C10.3002 10.6521 10.3002 8.40209 8.95017 7.05209C8.55017 6.65209 8.05017 6.35209 7.50017 6.20209C7.25017 6.10209 7.10017 5.85209 7.15017 5.55209C7.25017 5.30209 7.50017 5.15209 7.80017 5.20209C8.50017 5.40209 9.15017 5.80209 9.65017 6.30209C11.4002 8.05209 11.4002 10.9021 9.65017 12.6521L7.65017 14.6521C6.80017 15.5521 5.65017 16.0021 4.50017 16.0021ZM8.30017 10.8021C8.25017 10.8021 8.20017 10.8021 8.15017 10.8021C7.45017 10.6021 6.80017 10.2021 6.30017 9.70209C5.45017 8.85209 5.00017 7.70209 5.00017 6.50209C5.00017 5.30209 5.45017 4.15209 6.30017 3.30209L8.30017 1.30209C10.0502 -0.447906 12.9002 -0.447906 14.6502 1.30209C16.4002 3.05209 16.4002 5.90209 14.6502 7.65209L12.6502 9.65209C12.4502 9.85209 12.1502 9.85209 11.9502 9.65209C11.7502 9.45209 11.7502 9.15209 11.9502 8.95209L13.9502 6.95209C15.3002 5.60209 15.3002 3.35209 13.9502 2.00209C12.6002 0.652094 10.3502 0.652094 9.00017 2.00209L7.00017 4.00209C6.35017 4.70209 6.00017 5.55209 6.00017 6.50209C6.00017 7.45209 6.35017 8.30209 7.05017 9.00209C7.45017 9.40209 7.95017 9.70209 8.50017 9.85209C8.75017 9.95209 8.90017 10.2021 8.85017 10.5021C8.75017 10.7021 8.55017 10.8021 8.30017 10.8021Z" fill="#A2A0A2"/>
</g>
<defs>
<clipPath id="clip0_63_1373">
<rect width="16" height="16" fill="white"/>
</clipPath>
</defs>
</svg>
