<svg width="50" height="50" viewBox="0 0 50 50" fill="none" xmlns="http://www.w3.org/2000/svg">
<rect width="50" height="50" rx="12" fill="white"/>
<rect x="0.5" y="0.5" width="49" height="49" rx="11.5" stroke="black" stroke-opacity="0.2" stroke-dasharray="2 2"/>
<path d="M24.3333 24.3333V21.8333C24.3333 21.375 24.7083 21 25.1667 21C25.625 21 26 21.375 26 21.8333V24.3333H28.5C28.9583 24.3333 29.3333 24.7083 29.3333 25.1667C29.3333 25.625 28.9583 26 28.5 26H26V28.5C26 28.9583 25.625 29.3333 25.1667 29.3333C24.7083 29.3333 24.3333 28.9583 24.3333 28.5V26H21.8333C21.375 26 21 25.625 21 25.1667C21 24.7083 21.375 24.3333 21.8333 24.3333H24.3333Z" fill="#BBBBBB"/>
</svg>
